<mxfile host="app.diagrams.net" modified="2022-03-09T12:27:04.119Z" agent="5.0 (Macintosh; Intel Mac OS X 10_15_7) AppleWebKit/605.1.15 (KHTML, like Gecko) Version/15.3 Safari/605.1.15" etag="kbl6-nKHBwAvm5T8ZnlZ" version="17.0.0" type="github">
  <diagram name="Page-1" id="c37626ed-c26b-45fb-9056-f9ebc6bb27b6">
    <mxGraphModel dx="233" dy="1437" grid="1" gridSize="10" guides="1" tooltips="1" connect="1" arrows="1" fold="1" page="1" pageScale="1" pageWidth="1100" pageHeight="850" background="none" math="0" shadow="0">
      <root>
        <mxCell id="0" />
        <mxCell id="1" parent="0" />
        <mxCell id="N28YlUNtLmQZ9LZBREEU-1" value="Stockholm" style="whiteSpace=wrap;html=1;rounded=0;shadow=0;comic=0;strokeWidth=1;fontFamily=Verdana;fontSize=14;fillColor=#f5f5f5;strokeColor=none;fontStyle=1;verticalAlign=top;" parent="1" vertex="1">
          <mxGeometry x="1100" y="120" width="730" height="638" as="geometry" />
        </mxCell>
        <mxCell id="00Mz1gx1yCFMuMXbWhuk-10" value="" style="rounded=1;whiteSpace=wrap;html=1;" vertex="1" parent="1">
          <mxGeometry x="1172" y="260" width="580" height="310" as="geometry" />
        </mxCell>
        <mxCell id="N28YlUNtLmQZ9LZBREEU-43" value="192.168.9.0&lt;br&gt;LAN" style="text;html=1;strokeColor=none;fillColor=none;align=center;verticalAlign=middle;whiteSpace=wrap;rounded=0;" parent="1" vertex="1">
          <mxGeometry x="1435" y="140" width="60" height="30" as="geometry" />
        </mxCell>
        <mxCell id="gRUcOE9CfGCtsJtimKDV-1" value="London" style="whiteSpace=wrap;html=1;rounded=0;shadow=0;comic=0;strokeWidth=1;fontFamily=Verdana;fontSize=14;fillColor=#f5f5f5;strokeColor=none;fontStyle=1;verticalAlign=top;" parent="1" vertex="1">
          <mxGeometry x="1760" y="957.25" width="282" height="292.75" as="geometry" />
        </mxCell>
        <mxCell id="hzm-aWV2wav2DxI-R75p-21" style="edgeStyle=orthogonalEdgeStyle;rounded=0;orthogonalLoop=1;jettySize=auto;html=1;exitX=1;exitY=0.5;exitDx=0;exitDy=0;exitPerimeter=0;fontSize=24;" parent="1" source="gRUcOE9CfGCtsJtimKDV-7" target="hzm-aWV2wav2DxI-R75p-19" edge="1">
          <mxGeometry relative="1" as="geometry" />
        </mxCell>
        <mxCell id="gRUcOE9CfGCtsJtimKDV-7" value="" style="shape=mxgraph.cisco.routers.router;sketch=0;html=1;pointerEvents=1;dashed=0;fillColor=#036897;strokeColor=#ffffff;strokeWidth=2;verticalLabelPosition=bottom;verticalAlign=top;align=center;outlineConnect=0;" parent="1" vertex="1">
          <mxGeometry x="1770" y="1060" width="58" height="40" as="geometry" />
        </mxCell>
        <mxCell id="VoIpoD_sD3zL7hZzoFKK-5" value="" style="shape=mxgraph.cisco.routers.router;sketch=0;html=1;pointerEvents=1;dashed=0;fillColor=#036897;strokeColor=#ffffff;strokeWidth=2;verticalLabelPosition=bottom;verticalAlign=top;align=center;outlineConnect=0;" parent="1" vertex="1">
          <mxGeometry x="1426" y="720" width="78" height="53" as="geometry" />
        </mxCell>
        <mxCell id="VoIpoD_sD3zL7hZzoFKK-9" value="" style="shape=mxgraph.cisco.security.guard;sketch=0;html=1;pointerEvents=1;dashed=0;fillColor=#036897;strokeColor=#ffffff;strokeWidth=2;verticalLabelPosition=bottom;verticalAlign=top;align=center;outlineConnect=0;" parent="1" vertex="1">
          <mxGeometry x="1199" y="365.5" width="110" height="80" as="geometry" />
        </mxCell>
        <mxCell id="VoIpoD_sD3zL7hZzoFKK-10" value="" style="shape=mxgraph.cisco.storage.cisco_file_engine;html=1;dashed=0;fillColor=#036897;strokeColor=#ffffff;strokeWidth=2;verticalLabelPosition=bottom;verticalAlign=top;rounded=0;shadow=0;comic=0;fontFamily=Verdana;fontSize=12;" parent="1" vertex="1">
          <mxGeometry x="1369" y="366" width="80" height="80" as="geometry" />
        </mxCell>
        <mxCell id="VoIpoD_sD3zL7hZzoFKK-12" value="" style="shape=mxgraph.cisco.security.router_firewall;sketch=0;html=1;pointerEvents=1;dashed=0;fillColor=#036897;strokeColor=#ffffff;strokeWidth=2;verticalLabelPosition=bottom;verticalAlign=top;align=center;outlineConnect=0;fontSize=24;" parent="1" vertex="1">
          <mxGeometry x="1495" y="384" width="78" height="62" as="geometry" />
        </mxCell>
        <mxCell id="VoIpoD_sD3zL7hZzoFKK-18" value="&lt;b&gt;Nextcloud&lt;br&gt;&lt;/b&gt;" style="text;html=1;strokeColor=none;fillColor=none;align=center;verticalAlign=middle;whiteSpace=wrap;rounded=0;" parent="1" vertex="1">
          <mxGeometry x="1370" y="340" width="80" height="30" as="geometry" />
        </mxCell>
        <mxCell id="hzm-aWV2wav2DxI-R75p-2" value="&lt;b&gt;FreeIPA&lt;/b&gt;" style="text;html=1;strokeColor=none;fillColor=none;align=center;verticalAlign=middle;whiteSpace=wrap;rounded=0;" parent="1" vertex="1">
          <mxGeometry x="1220" y="340" width="80" height="30" as="geometry" />
        </mxCell>
        <mxCell id="hzm-aWV2wav2DxI-R75p-3" value="&lt;b&gt;Intrusion Detection&lt;br&gt;System&lt;/b&gt;" style="text;html=1;strokeColor=none;fillColor=none;align=center;verticalAlign=middle;whiteSpace=wrap;rounded=0;" parent="1" vertex="1">
          <mxGeometry x="1492" y="340" width="86" height="31" as="geometry" />
        </mxCell>
        <mxCell id="hzm-aWV2wav2DxI-R75p-19" value="Client" style="sketch=0;outlineConnect=0;fontColor=#232F3E;gradientColor=none;strokeColor=#232F3E;fillColor=#ffffff;dashed=0;verticalLabelPosition=bottom;verticalAlign=top;align=center;html=1;fontSize=12;fontStyle=0;aspect=fixed;shape=mxgraph.aws4.resourceIcon;resIcon=mxgraph.aws4.client;" parent="1" vertex="1">
          <mxGeometry x="1970" y="1050" width="60" height="60" as="geometry" />
        </mxCell>
        <mxCell id="hzm-aWV2wav2DxI-R75p-22" value="&lt;font style=&quot;font-size: 12px&quot;&gt;192.168.10.1&lt;/font&gt;" style="text;html=1;strokeColor=none;fillColor=none;align=center;verticalAlign=middle;whiteSpace=wrap;rounded=0;fontSize=24;" parent="1" vertex="1">
          <mxGeometry x="1840" y="1050" width="60" height="30" as="geometry" />
        </mxCell>
        <mxCell id="hzm-aWV2wav2DxI-R75p-23" value="&lt;font style=&quot;font-size: 12px&quot;&gt;192.168.10.7&lt;/font&gt;" style="text;html=1;strokeColor=none;fillColor=none;align=center;verticalAlign=middle;whiteSpace=wrap;rounded=0;fontSize=24;" parent="1" vertex="1">
          <mxGeometry x="1970" y="1020" width="60" height="30" as="geometry" />
        </mxCell>
        <mxCell id="hzm-aWV2wav2DxI-R75p-36" value="&lt;b&gt;Public IP&lt;/b&gt;" style="rounded=1;whiteSpace=wrap;html=1;fontSize=10;" parent="1" vertex="1">
          <mxGeometry x="1422" y="773" width="80" height="30" as="geometry" />
        </mxCell>
        <mxCell id="hzm-aWV2wav2DxI-R75p-38" value="&lt;b&gt;Public IP&lt;/b&gt;" style="rounded=1;whiteSpace=wrap;html=1;fontSize=10;" parent="1" vertex="1">
          <mxGeometry x="1690" y="1065" width="80" height="30" as="geometry" />
        </mxCell>
        <mxCell id="hzm-aWV2wav2DxI-R75p-40" value="" style="group" parent="1" vertex="1" connectable="0">
          <mxGeometry x="1210" y="867.13" width="450" height="242.8699999999999" as="geometry" />
        </mxCell>
        <mxCell id="VoIpoD_sD3zL7hZzoFKK-11" value="" style="ellipse;shape=cloud;whiteSpace=wrap;html=1;fontSize=24;" parent="hzm-aWV2wav2DxI-R75p-40" vertex="1">
          <mxGeometry width="450" height="242.87" as="geometry" />
        </mxCell>
        <mxCell id="VoIpoD_sD3zL7hZzoFKK-2" value="&lt;font style=&quot;font-size: 24px&quot;&gt;Internet&lt;/font&gt;" style="text;html=1;strokeColor=none;fillColor=none;align=center;verticalAlign=middle;whiteSpace=wrap;rounded=0;" parent="hzm-aWV2wav2DxI-R75p-40" vertex="1">
          <mxGeometry x="169.72000000000003" y="60" width="123.19" height="140" as="geometry" />
        </mxCell>
        <mxCell id="hzm-aWV2wav2DxI-R75p-81" value="" style="group" parent="hzm-aWV2wav2DxI-R75p-40" vertex="1" connectable="0">
          <mxGeometry x="100" y="72.49999999999994" width="70" height="115" as="geometry" />
        </mxCell>
        <mxCell id="hzm-aWV2wav2DxI-R75p-82" value="Phone" style="strokeColor=#dddddd;shadow=1;strokeWidth=1;rounded=1;absoluteArcSize=1;arcSize=2;labelPosition=center;verticalLabelPosition=middle;align=center;verticalAlign=bottom;spacingLeft=0;fontColor=#999999;fontSize=12;whiteSpace=wrap;spacingBottom=2;" parent="hzm-aWV2wav2DxI-R75p-81" vertex="1">
          <mxGeometry width="70" height="85" as="geometry" />
        </mxCell>
        <mxCell id="hzm-aWV2wav2DxI-R75p-83" value="" style="sketch=0;dashed=0;connectable=0;html=1;fillColor=#757575;strokeColor=none;shape=mxgraph.gcp2.phone;part=1;" parent="hzm-aWV2wav2DxI-R75p-82" vertex="1">
          <mxGeometry x="0.5" width="32" height="50" relative="1" as="geometry">
            <mxPoint x="-16" y="10" as="offset" />
          </mxGeometry>
        </mxCell>
        <mxCell id="hzm-aWV2wav2DxI-R75p-84" value="2FA" style="text;html=1;strokeColor=none;fillColor=none;align=center;verticalAlign=middle;whiteSpace=wrap;rounded=0;" parent="hzm-aWV2wav2DxI-R75p-81" vertex="1">
          <mxGeometry x="5" y="85" width="60" height="30" as="geometry" />
        </mxCell>
        <mxCell id="hzm-aWV2wav2DxI-R75p-47" value="" style="shape=flexArrow;endArrow=classic;startArrow=none;html=1;rounded=0;fontSize=10;entryX=0.5;entryY=0;entryDx=0;entryDy=0;exitX=1;exitY=0.5;exitDx=0;exitDy=0;" parent="1" target="hzm-aWV2wav2DxI-R75p-38" edge="1" source="hzm-aWV2wav2DxI-R75p-36">
          <mxGeometry width="100" height="100" relative="1" as="geometry">
            <mxPoint x="1530" y="790" as="sourcePoint" />
            <mxPoint x="1730" y="970" as="targetPoint" />
            <Array as="points">
              <mxPoint x="1550" y="790" />
              <mxPoint x="1550" y="980" />
              <mxPoint x="1730" y="980" />
            </Array>
          </mxGeometry>
        </mxCell>
        <mxCell id="hzm-aWV2wav2DxI-R75p-50" value="&lt;b&gt;&lt;br&gt;O&lt;br&gt;V&lt;br&gt;P&lt;br&gt;N&lt;/b&gt;" style="text;html=1;strokeColor=none;fillColor=none;align=center;verticalAlign=middle;whiteSpace=wrap;rounded=0;fontSize=10;" parent="1" vertex="1">
          <mxGeometry x="1540" y="860" width="60" height="30" as="geometry" />
        </mxCell>
        <mxCell id="hzm-aWV2wav2DxI-R75p-54" value="" style="group" parent="1" vertex="1" connectable="0">
          <mxGeometry x="1426" y="690" width="80" height="30" as="geometry" />
        </mxCell>
        <mxCell id="hzm-aWV2wav2DxI-R75p-55" value="" style="rounded=1;whiteSpace=wrap;html=1;fontSize=10;" parent="hzm-aWV2wav2DxI-R75p-54" vertex="1">
          <mxGeometry width="80" height="30" as="geometry" />
        </mxCell>
        <mxCell id="hzm-aWV2wav2DxI-R75p-56" value="&lt;b&gt;192.168.9.1&lt;/b&gt;" style="text;html=1;strokeColor=none;fillColor=none;align=center;verticalAlign=middle;whiteSpace=wrap;rounded=0;fontSize=10;" parent="hzm-aWV2wav2DxI-R75p-54" vertex="1">
          <mxGeometry x="20" y="7.5" width="40" height="15" as="geometry" />
        </mxCell>
        <mxCell id="00Mz1gx1yCFMuMXbWhuk-6" value="" style="shape=flexArrow;endArrow=classic;startArrow=none;html=1;rounded=0;fontSize=10;entryX=0.5;entryY=0;entryDx=0;entryDy=0;exitX=0;exitY=0.5;exitDx=0;exitDy=0;" edge="1" parent="1" source="hzm-aWV2wav2DxI-R75p-36" target="hzm-aWV2wav2DxI-R75p-82">
          <mxGeometry width="100" height="100" relative="1" as="geometry">
            <mxPoint x="1211" y="900" as="sourcePoint" />
            <mxPoint x="1439" y="1177" as="targetPoint" />
            <Array as="points">
              <mxPoint x="1350" y="788" />
            </Array>
          </mxGeometry>
        </mxCell>
        <mxCell id="00Mz1gx1yCFMuMXbWhuk-12" value="" style="rounded=1;whiteSpace=wrap;html=1;fontSize=10;" vertex="1" parent="1">
          <mxGeometry x="1426" y="570" width="80" height="30" as="geometry" />
        </mxCell>
        <mxCell id="00Mz1gx1yCFMuMXbWhuk-13" value="&lt;b&gt;192.168.9.10&lt;/b&gt;" style="text;html=1;strokeColor=none;fillColor=none;align=center;verticalAlign=middle;whiteSpace=wrap;rounded=0;fontSize=10;" vertex="1" parent="1">
          <mxGeometry x="1445" y="577.5" width="40" height="15" as="geometry" />
        </mxCell>
        <mxCell id="00Mz1gx1yCFMuMXbWhuk-14" style="edgeStyle=orthogonalEdgeStyle;rounded=0;orthogonalLoop=1;jettySize=auto;html=1;exitX=0.5;exitY=0;exitDx=0;exitDy=0;entryX=0.5;entryY=1;entryDx=0;entryDy=0;" edge="1" parent="1" source="hzm-aWV2wav2DxI-R75p-55" target="00Mz1gx1yCFMuMXbWhuk-12">
          <mxGeometry relative="1" as="geometry" />
        </mxCell>
        <mxCell id="00Mz1gx1yCFMuMXbWhuk-15" value="" style="strokeColor=#dddddd;shadow=1;strokeWidth=1;rounded=1;absoluteArcSize=1;arcSize=2;" vertex="1" parent="1">
          <mxGeometry x="1610" y="393" width="130" height="44" as="geometry" />
        </mxCell>
        <mxCell id="00Mz1gx1yCFMuMXbWhuk-16" value="VPN Gateway" style="sketch=0;dashed=0;connectable=0;html=1;fillColor=#757575;strokeColor=none;shape=mxgraph.gcp2.gateway;part=1;labelPosition=right;verticalLabelPosition=middle;align=left;verticalAlign=middle;spacingLeft=5;fontSize=12;" vertex="1" parent="00Mz1gx1yCFMuMXbWhuk-15">
          <mxGeometry y="0.5" width="32" height="32" relative="1" as="geometry">
            <mxPoint x="5" y="-16" as="offset" />
          </mxGeometry>
        </mxCell>
        <mxCell id="00Mz1gx1yCFMuMXbWhuk-17" value="" style="rounded=1;whiteSpace=wrap;html=1;fontSize=10;" vertex="1" parent="1">
          <mxGeometry x="1220" y="445.5" width="80" height="30" as="geometry" />
        </mxCell>
        <mxCell id="00Mz1gx1yCFMuMXbWhuk-18" value="&lt;b&gt;192.168.9.10:80&lt;/b&gt;" style="text;html=1;strokeColor=none;fillColor=none;align=center;verticalAlign=middle;whiteSpace=wrap;rounded=0;fontSize=10;" vertex="1" parent="1">
          <mxGeometry x="1239" y="453" width="40" height="15" as="geometry" />
        </mxCell>
        <mxCell id="00Mz1gx1yCFMuMXbWhuk-19" value="" style="rounded=1;whiteSpace=wrap;html=1;fontSize=10;" vertex="1" parent="1">
          <mxGeometry x="1626.5" y="444" width="95" height="34" as="geometry" />
        </mxCell>
        <mxCell id="00Mz1gx1yCFMuMXbWhuk-20" value="&lt;b&gt;192.168.9.10:1194&lt;/b&gt;" style="text;html=1;strokeColor=none;fillColor=none;align=center;verticalAlign=middle;whiteSpace=wrap;rounded=0;fontSize=10;" vertex="1" parent="1">
          <mxGeometry x="1654" y="453.5" width="40" height="15" as="geometry" />
        </mxCell>
        <mxCell id="00Mz1gx1yCFMuMXbWhuk-21" value="" style="rounded=1;whiteSpace=wrap;html=1;fontSize=10;" vertex="1" parent="1">
          <mxGeometry x="1495" y="446" width="80" height="30" as="geometry" />
        </mxCell>
        <mxCell id="00Mz1gx1yCFMuMXbWhuk-22" value="&lt;b&gt;192.168.9.10&lt;/b&gt;" style="text;html=1;strokeColor=none;fillColor=none;align=center;verticalAlign=middle;whiteSpace=wrap;rounded=0;fontSize=10;" vertex="1" parent="1">
          <mxGeometry x="1514" y="453.5" width="40" height="15" as="geometry" />
        </mxCell>
        <mxCell id="00Mz1gx1yCFMuMXbWhuk-23" value="" style="rounded=1;whiteSpace=wrap;html=1;fontSize=10;" vertex="1" parent="1">
          <mxGeometry x="1359" y="445.5" width="100" height="30" as="geometry" />
        </mxCell>
        <mxCell id="00Mz1gx1yCFMuMXbWhuk-24" value="&lt;b&gt;192.168.9.10:9000&lt;/b&gt;" style="text;html=1;strokeColor=none;fillColor=none;align=center;verticalAlign=middle;whiteSpace=wrap;rounded=0;fontSize=10;" vertex="1" parent="1">
          <mxGeometry x="1389" y="453" width="40" height="15" as="geometry" />
        </mxCell>
      </root>
    </mxGraphModel>
  </diagram>
</mxfile>
